{
  "accessors": [
    {
      "bufferView": 2,
      "componentType": 5126,
      "count": 41,
      "max": [
        100.81938934326172,
        13.829704284667969,
        26.605314254760742
      ],
      "min": [
        -96.02425384521484,
        -50.372989654541016,
        4.440892098500626e-16
      ],
      "type": "VEC3"
    },
    {
      "bufferView": 0,
      "componentType": 5125,
      "count": 48,
      "type": "SCALAR"
    },
    {
      "bufferView": 2,
      "byteOffset": 492,
      "componentType": 5126,
      "count": 1344,
      "max": [
        100.82540130615234,
        40.33415985107422,
        40.12411880493164
      ],
      "min": [
        -95.63574981689453,
        -49.1866455078125,
        2.7559056282043457
      ],
      "type": "VEC3"
    },
    {
      "bufferView": 2,
      "byteOffset": 16620,
      "componentType": 5126,
      "count": 1344,
      "max": [
        1.0,
        1.0,
        1.0
      ],
      "min": [
        -1.0,
        -1.0,
        -1.0
      ],
      "type": "VEC3"
    },
    {
      "bufferView": 1,
      "componentType": 5126,
      "count": 1344,
      "max": [
        4.374618053436279,
        4.374618053436279
      ],
      "min": [
        -4.374618053436279,
        -1.1437350511550903
      ],
      "type": "VEC2"
    },
    {
      "bufferView": 0,
      "byteOffset": 192,
      "componentType": 5125,
      "count": 2016,
      "type": "SCALAR"
    },
    {
      "bufferView": 2,
      "byteOffset": 32748,
      "componentType": 5126,
      "count": 7008,
      "max": [
        100.89656829833984,
        40.33415985107422,
        44.9216423034668
      ],
      "min": [
        -95.70691680908203,
        -49.1866455078125,
        2.7559053897857666
      ],
      "type": "VEC3"
    },
    {
      "bufferView": 2,
      "byteOffset": 116844,
      "componentType": 5126,
      "count": 7008,
      "max": [
        1.0,
        1.0,
        1.0
      ],
      "min": [
        -1.0,
        -1.0,
        -1.0
      ],
      "type": "VEC3"
    },
    {
      "bufferView": 1,
      "byteOffset": 10752,
      "componentType": 5126,
      "count": 7008,
      "max": [
        5.118110179901123,
        4.9926347732543945
      ],
      "min": [
        -5.118110179901123,
        -4.8978190422058105
      ],
      "type": "VEC2"
    },
    {
      "bufferView": 0,
      "byteOffset": 8256,
      "componentType": 5125,
      "count": 13008,
      "type": "SCALAR"
    },
    {
      "bufferView": 2,
      "byteOffset": 200940,
      "componentType": 5126,
      "count": 1056,
      "max": [
        99.63909912109375,
        40.23712158203125,
        25.303062438964844
      ],
      "min": [
        -94.44945526123047,
        -49.19188690185547,
        0.05262722074985504
      ],
      "type": "VEC3"
    },
    {
      "bufferView": 2,
      "byteOffset": 213612,
      "componentType": 5126,
      "count": 1056,
      "max": [
        1.0,
        1.0,
        1.0
      ],
      "min": [
        -1.0,
        -1.0,
        -1.0
      ],
      "type": "VEC3"
    },
    {
      "bufferView": 1,
      "byteOffset": 66816,
      "componentType": 5126,
      "count": 1056,
      "max": [
        4.374453067779541,
        4.374453067779541
      ],
      "min": [
        -4.374453067779541,
        -0.06561680138111115
      ],
      "type": "VEC2"
    },
    {
      "bufferView": 0,
      "byteOffset": 60288,
      "componentType": 5125,
      "count": 1584,
      "type": "SCALAR"
    },
    {
      "bufferView": 2,
      "byteOffset": 226284,
      "componentType": 5126,
      "count": 336,
      "max": [
        99.71649932861328,
        41.12671661376953,
        41.452449798583984
      ],
      "min": [
        -94.52684783935547,
        -50.0086669921875,
        5.511811256408691
      ],
      "type": "VEC3"
    },
    {
      "bufferView": 2,
      "byteOffset": 230316,
      "componentType": 5126,
      "count": 336,
      "max": [
        0.6546713709831238,
        0.6121702790260315,
        0.5376365780830383
      ],
      "min": [
        -0.6546713709831238,
        -0.6121702790260315,
        -0.5376365780830383
      ],
      "type": "VEC3"
    },
    {
      "bufferView": 1,
      "byteOffset": 75264,
      "componentType": 5126,
      "count": 336,
      "max": [
        1.3123531341552734,
        0.02376321516931057
      ],
      "min": [
        -1.3123531341552734,
        -0.19024424254894257
      ],
      "type": "VEC2"
    },
    {
      "bufferView": 0,
      "byteOffset": 66624,
      "componentType": 5125,
      "count": 504,
      "type": "SCALAR"
    },
    {
      "bufferView": 2,
      "byteOffset": 234348,
      "componentType": 5126,
      "count": 48,
      "max": [
        91.04019927978516,
        39.952903747558594,
        40.03107833862305
      ],
      "min": [
        -85.85054779052734,
        39.420257568359375,
        2.7559053897857666
      ],
      "type": "VEC3"
    },
    {
      "bufferView": 2,
      "byteOffset": 234924,
      "componentType": 5126,
      "count": 48,
      "max": [
        1.0,
        1.0,
        1.0
      ],
      "min": [
        -1.0,
        -1.0,
        -1.0
      ],
      "type": "VEC3"
    },
    {
      "bufferView": 1,
      "byteOffset": 77952,
      "componentType": 5126,
      "count": 48,
      "max": [
        1.5205336809158325,
        2.0052261352539063
      ],
      "min": [
        -1.5205336809158325,
        -0.06561680138111115
      ],
      "type": "VEC2"
    },
    {
      "bufferView": 0,
      "byteOffset": 68640,
      "componentType": 5125,
      "count": 72,
      "type": "SCALAR"
    },
    {
      "bufferView": 2,
      "byteOffset": 235500,
      "componentType": 5126,
      "count": 3136,
      "max": [
        100.82020568847656,
        40.773460388183594,
        40.03107833862305
      ],
      "min": [
        -95.63055419921875,
        -49.19188690185547,
        4.440892098500626e-16
      ],
      "type": "VEC3"
    },
    {
      "bufferView": 2,
      "byteOffset": 273132,
      "componentType": 5126,
      "count": 3136,
      "max": [
        1.0,
        1.0,
        1.0
      ],
      "min": [
        -1.0,
        -1.0,
        -1.0
      ],
      "type": "VEC3"
    },
    {
      "bufferView": 1,
      "byteOffset": 78336,
      "componentType": 5126,
      "count": 3136,
      "max": [
        7.983802318572998,
        7.552988529205322
      ],
      "min": [
        -7.983802318572998,
        -7.8106770515441895
      ],
      "type": "VEC2"
    },
    {
      "bufferView": 0,
      "byteOffset": 68928,
      "componentType": 5125,
      "count": 6000,
      "type": "SCALAR"
    },
    {
      "bufferView": 2,
      "byteOffset": 310764,
      "componentType": 5126,
      "count": 106,
      "max": [
        118.08251190185547,
        132.51609802246094,
        1.2765718793161795e-07
      ],
      "min": [
        -112.8075942993164,
        -134.0928192138672,
        -6.732283592224121
      ],
      "type": "VEC3"
    },
    {
      "bufferView": 2,
      "byteOffset": 312036,
      "componentType": 5126,
      "count": 106,
      "max": [
        0.7264857292175293,
        0.7342544198036194,
        0.6788744330406189
      ],
      "min": [
        -0.7264857292175293,
        -0.7342544198036194,
        -0.6788744330406189
      ],
      "type": "VEC3"
    },
    {
      "bufferView": 1,
      "byteOffset": 103424,
      "componentType": 5126,
      "count": 106,
      "max": [
        5.554352760314941,
        6.012763023376465
      ],
      "min": [
        -5.554352760314941,
        0.0
      ],
      "type": "VEC2"
    },
    {
      "bufferView": 0,
      "byteOffset": 92928,
      "componentType": 5125,
      "count": 204,
      "type": "SCALAR"
    },
    {
      "bufferView": 2,
      "byteOffset": 313308,
      "componentType": 5126,
      "count": 2304,
      "max": [
        49.77021026611328,
        -111.10236358642578,
        17.767911911010742
      ],
      "min": [
        -43.840576171875,
        -113.22834777832031,
        7.768263339996338
      ],
      "type": "VEC3"
    },
    {
      "bufferView": 2,
      "byteOffset": 340956,
      "componentType": 5126,
      "count": 2304,
      "max": [
        1.0,
        1.0,
        1.0
      ],
      "min": [
        -1.0,
        -1.0,
        -1.0
      ],
      "type": "VEC3"
    },
    {
      "bufferView": 0,
      "byteOffset": 93744,
      "componentType": 5125,
      "count": 4482,
      "type": "SCALAR"
    }
  ],
  "asset": {
    "extras": {
      "author": "Mundo Urbano (https://sketchfab.com/mundourbano)",
      "license": "CC-BY-4.0 (http://creativecommons.org/licenses/by/4.0/)",
      "source": "https://sketchfab.com/3d-models/grada-fija-5x-230x-214-5c88598e4d65455796c32745d1172865",
      "title": "Grada Fija 5x 2.30x 2.14"
    },
    "generator": "Sketchfab-12.68.0",
    "version": "2.0"
  },
  "bufferViews": [
    {
      "buffer": 0,
      "byteLength": 111672,
      "name": "floatBufferViews",
      "target": 34963
    },
    {
      "buffer": 0,
      "byteLength": 104272,
      "byteOffset": 111672,
      "byteStride": 8,
      "name": "floatBufferViews",
      "target": 34962
    },
    {
      "buffer": 0,
      "byteLength": 368604,
      "byteOffset": 215944,
      "byteStride": 12,
      "name": "floatBufferViews",
      "target": 34962
    }
  ],
  "buffers": [
    {
      "byteLength": 584548,
      "uri": "scene.bin"
    }
  ],
  "images": [
    {
      "uri": "textures/material_0_baseColor.jpeg"
    },
    {
      "uri": "textures/material_1_baseColor.jpeg"
    },
    {
      "uri": "textures/material_2_baseColor.jpeg"
    },
    {
      "uri": "textures/material_4_baseColor.jpeg"
    },
    {
      "uri": "textures/material_5_baseColor.jpeg"
    }
  ],
  "materials": [
    {
      "name": "edge_color000255",
      "pbrMetallicRoughness": {
        "baseColorFactor": [
          0.0,
          0.0,
          0.0,
          1.0
        ],
        "metallicFactor": 0.0,
        "roughnessFactor": 0.6
      }
    },
    {
      "name": "material_0",
      "pbrMetallicRoughness": {
        "baseColorTexture": {
          "index": 0
        },
        "metallicFactor": 0.0,
        "roughnessFactor": 0.6
      }
    },
    {
      "name": "material_1",
      "pbrMetallicRoughness": {
        "baseColorTexture": {
          "index": 1
        },
        "metallicFactor": 0.0,
        "roughnessFactor": 0.6
      }
    },
    {
      "name": "material",
      "pbrMetallicRoughness": {
        "baseColorTexture": {
          "index": 0
        },
        "metallicFactor": 0.0,
        "roughnessFactor": 0.6
      }
    },
    {
      "name": "material_2",
      "pbrMetallicRoughness": {
        "baseColorTexture": {
          "index": 2
        },
        "metallicFactor": 0.0,
        "roughnessFactor": 0.6
      }
    },
    {
      "name": "material_4",
      "pbrMetallicRoughness": {
        "baseColorTexture": {
          "index": 3
        },
        "metallicFactor": 0.0,
        "roughnessFactor": 0.6
      }
    },
    {
      "name": "material_3",
      "pbrMetallicRoughness": {
        "baseColorTexture": {
          "index": 1
        },
        "metallicFactor": 0.0,
        "roughnessFactor": 0.6
      }
    },
    {
      "name": "material_5",
      "pbrMetallicRoughness": {
        "baseColorTexture": {
          "index": 4
        },
        "metallicFactor": 0.0,
        "roughnessFactor": 0.6
      }
    },
    {
      "name": "material_6",
      "pbrMetallicRoughness": {
        "baseColorFactor": [
          0.0,
          1.0,
          0.0,
          1.0
        ],
        "metallicFactor": 0.0,
        "roughnessFactor": 0.6
      }
    }
  ],
  "meshes": [
    {
      "name": "Material2",
      "primitives": [
        {
          "attributes": {
            "POSITION": 0
          },
          "indices": 1,
          "material": 0,
          "mode": 1
        }
      ]
    },
    {
      "name": "Material2",
      "primitives": [
        {
          "attributes": {
            "NORMAL": 3,
            "POSITION": 2,
            "TEXCOORD_0": 4
          },
          "indices": 5,
          "material": 1,
          "mode": 4
        }
      ]
    },
    {
      "name": "Material2",
      "primitives": [
        {
          "attributes": {
            "NORMAL": 7,
            "POSITION": 6,
            "TEXCOORD_0": 8
          },
          "indices": 9,
          "material": 2,
          "mode": 4
        }
      ]
    },
    {
      "name": "Material2",
      "primitives": [
        {
          "attributes": {
            "NORMAL": 11,
            "POSITION": 10,
            "TEXCOORD_0": 12
          },
          "indices": 13,
          "material": 3,
          "mode": 4
        }
      ]
    },
    {
      "name": "Material2",
      "primitives": [
        {
          "attributes": {
            "NORMAL": 15,
            "POSITION": 14,
            "TEXCOORD_0": 16
          },
          "indices": 17,
          "material": 4,
          "mode": 4
        }
      ]
    },
    {
      "name": "Material3",
      "primitives": [
        {
          "attributes": {
            "NORMAL": 19,
            "POSITION": 18,
            "TEXCOORD_0": 20
          },
          "indices": 21,
          "material": 5,
          "mode": 4
        }
      ]
    },
    {
      "name": "Material2",
      "primitives": [
        {
          "attributes": {
            "NORMAL": 23,
            "POSITION": 22,
            "TEXCOORD_0": 24
          },
          "indices": 25,
          "material": 6,
          "mode": 4
        }
      ]
    },
    {
      "name": "Material2",
      "primitives": [
        {
          "attributes": {
            "NORMAL": 27,
            "POSITION": 26,
            "TEXCOORD_0": 28
          },
          "indices": 29,
          "material": 7,
          "mode": 4
        }
      ]
    },
    {
      "name": "Material2",
      "primitives": [
        {
          "attributes": {
            "NORMAL": 31,
            "POSITION": 30
          },
          "indices": 32,
          "material": 8,
          "mode": 4
        }
      ]
    }
  ],
  "nodes": [
    {
      "children": [
        1
      ],
      "matrix": [
        1.0,
        0.0,
        0.0,
        0.0,
        0.0,
        2.220446049250313e-16,
        -1.0,
        0.0,
        0.0,
        1.0,
        2.220446049250313e-16,
        0.0,
        0.0,
        0.0,
        0.0,
        1.0
      ],
      "name": "Sketchfab_model"
    },
    {
      "children": [
        2,
        3,
        4,
        5,
        6,
        7,
        8,
        9,
        10
      ],
      "name": "Collada visual scene group"
    },
    {
      "mesh": 0,
      "name": "Material2"
    },
    {
      "mesh": 1,
      "name": "Material2"
    },
    {
      "mesh": 2,
      "name": "Material2"
    },
    {
      "mesh": 3,
      "name": "Material2"
    },
    {
      "mesh": 4,
      "name": "Material2"
    },
    {
      "mesh": 5,
      "name": "Material3"
    },
    {
      "mesh": 6,
      "name": "Material2"
    },
    {
      "mesh": 7,
      "name": "Material2"
    },
    {
      "mesh": 8,
      "name": "Material2"
    }
  ],
  "samplers": [
    {
      "magFilter": 9729,
      "minFilter": 9987,
      "wrapS": 10497,
      "wrapT": 10497
    }
  ],
  "scene": 0,
  "scenes": [
    {
      "name": "Sketchfab_Scene",
      "nodes": [
        0
      ]
    }
  ],
  "textures": [
    {
      "sampler": 0,
      "source": 0
    },
    {
      "sampler": 0,
      "source": 1
    },
    {
      "sampler": 0,
      "source": 2
    },
    {
      "sampler": 0,
      "source": 3
    },
    {
      "sampler": 0,
      "source": 4
    }
  ]
}
